Coordinates
version=1
nRows=26
nColumns=30
inDegrees=yes

Units are S.I. units (second, meters, Newtons, ...)
Angles are in degrees.

endheader
time	floatyaw	floatroll	floatpitch	floatx	floaty	floatz	pro_sup_l	deviation_l	flexion_l	cmc_flexion_l	cmc_abduction_l	mp_flexion_l	ip_flexion_l	2mcp_flexion_l	2mcp_abduction_l	2pm_flexion_l	2md_flexion_l	3mcp_flexion_l	3mcp_abduction_l	3pm_flexion_l	3md_flexion_l	4mcp_flexion_l	4mcp_abduction_l	4pm_flexion_l	4md_flexion_l	5mcp_flexion_l	5mcp_abduction_l	5pm_flexion_l	5md_flexion_l
-0.995000	-3.995636	-4.876138	96.430707	-0.109366	-0.183558	-0.040073	86.837136	-0.382274	-2.983575	17.064070	2.705011	-21.414218	-33.962365	37.242765	10.290607	47.328754	34.336829	20.710632	4.952766	46.834483	33.108572	8.975560	-5.088776	62.205102	43.086985	1.045956	-8.914082	62.836222	43.614567
-0.985000	-3.995636	-4.876138	96.430707	-0.109355	-0.183561	-0.040060	86.828929	-0.389300	-2.979434	17.039230	2.663650	-21.427903	-33.968208	37.231840	10.281083	47.351411	34.349686	20.699564	4.957023	46.833718	33.117157	8.955277	-5.086031	62.197168	43.095399	1.079544	-8.939278	62.843710	43.609033
-0.975000	-3.995636	-4.876138	96.430707	-0.109343	-0.183570	-0.040048	86.820770	-0.396416	-2.980306	17.015516	2.623701	-21.443470	-33.978739	37.223431	10.275061	47.373915	34.357939	20.694559	4.957743	46.841499	33.124693	8.939880	-5.083677	62.187260	43.099277	1.113631	-8.962217	62.834197	43.595909
-0.965000	-3.995636	-4.876138	96.430707	-0.109330	-0.183582	-0.040035	86.819568	-0.402353	-2.987810	16.994053	2.585976	-21.459008	-33.992628	37.219507	10.273937	47.400764	34.364505	20.697674	4.956111	46.862029	33.133230	8.935191	-5.081534	62.177890	43.098875	1.149482	-8.978591	62.812485	43.578495
-0.955000	-3.995636	-4.876138	96.430707	-0.109314	-0.183596	-0.040021	86.828061	-0.407374	-3.001143	16.974482	2.549985	-21.473027	-34.007204	37.220649	10.277681	47.435581	34.373263	20.707896	4.954148	46.895125	33.144798	8.943057	-5.079039	62.172125	43.096769	1.189642	-8.988665	62.787289	43.561019
-0.945000	-3.995636	-4.876138	96.430707	-0.109297	-0.183610	-0.040004	86.843719	-0.413162	-3.017195	16.955024	2.514424	-21.484978	-34.019350	37.225287	10.284863	47.479440	34.387684	20.721111	4.953557	46.936266	33.160767	8.960116	-5.075557	62.173260	43.097159	1.236479	-8.996847	62.767407	43.546722
-0.935000	-3.995636	-4.876138	96.430707	-0.109279	-0.183624	-0.039984	86.860779	-0.421630	-3.031585	16.933130	2.477475	-21.495440	-34.026661	37.229479	10.293078	47.530200	34.409675	20.731376	4.954778	46.978233	33.181401	8.978700	-5.070707	62.183955	43.104332	1.290759	-9.008752	62.757879	43.536583
-0.925000	-3.995636	-4.876138	96.430707	-0.109260	-0.183635	-0.039961	86.873753	-0.433609	-3.040103	16.906345	2.436916	-21.505820	-34.028255	37.227864	10.299740	47.582913	34.439022	20.733056	4.956748	47.013797	33.205929	8.989587	-5.064580	62.205194	43.121027	1.350929	-9.027789	62.757946	43.529215
-0.915000	-3.995636	-4.876138	96.430707	-0.109242	-0.183641	-0.039935	86.880348	-0.448157	-3.040135	16.873146	2.390284	-21.517587	-34.024868	37.215974	10.302993	47.631180	34.473607	20.723113	4.957564	47.038400	33.233082	8.985680	-5.057785	62.235612	43.147416	1.413162	-9.053098	62.761936	43.521992
-0.905000	-3.995636	-4.876138	96.430707	-0.109226	-0.183642	-0.039908	86.882492	-0.462685	-3.031734	16.833618	2.335201	-21.531354	-34.018327	37.193068	10.302336	47.669328	34.510311	20.702676	4.955692	47.051719	33.261707	8.965359	-5.051343	62.271720	43.181073	1.472040	-9.079563	62.762971	43.512904
-0.895000	-3.995636	-4.876138	96.430707	-0.109211	-0.183637	-0.039882	86.885189	-0.473747	-3.017982	16.789790	2.269993	-21.546270	-34.010734	37.163811	10.298730	47.694868	34.546208	20.677134	4.950986	47.057610	33.291106	8.934112	-5.046526	62.309199	43.217886	1.521855	-9.099599	62.757855	43.502275
-0.885000	-3.995636	-4.876138	96.430707	-0.109194	-0.183629	-0.039859	86.893864	-0.478250	-3.004265	16.745260	2.194676	-21.560133	-34.003728	37.137273	10.294275	47.710091	34.579510	20.654419	4.944810	47.062641	33.321044	8.903263	-5.044634	62.344707	43.253512	1.558389	-9.105982	62.750269	43.493291
-0.875000	-3.995636	-4.876138	96.430707	-0.109174	-0.183620	-0.039844	86.911544	-0.474667	-2.996395	16.703960	2.111950	-21.570430	-33.998180	37.123166	10.291569	47.721627	34.609889	20.641953	4.939169	47.073757	33.351563	8.885641	-5.046647	62.377102	43.284768	1.580557	-9.094760	62.749758	43.490759
-0.865000	-3.995636	-4.876138	96.430707	-0.109149	-0.183614	-0.039836	86.937394	-0.463684	-2.998257	16.668545	2.027317	-21.575938	-33.994495	37.127100	10.292843	47.737667	34.638106	20.643608	4.935453	47.095794	33.382694	8.889790	-5.052801	62.407198	43.310365	1.591010	-9.067137	62.766471	43.498522
-0.855000	-3.995636	-4.876138	96.430707	-0.109121	-0.183615	-0.039836	86.967302	-0.447870	-3.010177	16.639360	1.947706	-21.577889	-33.993197	37.147653	10.299084	47.764079	34.665189	20.658177	4.933668	47.129692	33.414188	8.915737	-5.062338	62.436270	43.330756	1.595276	-9.029431	62.804749	43.516999
-0.845000	-3.995636	-4.876138	96.430707	-0.109091	-0.183621	-0.039841	86.995884	-0.430585	-3.028889	16.614713	1.879071	-21.579579	-33.995156	37.177058	10.309569	47.801560	34.691617	20.680118	4.932596	47.172171	33.445360	8.954908	-5.073651	62.464439	43.347352	1.600042	-8.990952	62.859690	43.542360
-0.835000	-3.995636	-4.876138	96.430707	-0.109064	-0.183632	-0.039846	87.018670	-0.414774	-3.049040	16.592260	1.824451	-21.584385	-34.001025	37.205003	10.322172	47.845474	34.716970	20.702095	4.930707	47.217092	33.475154	8.994536	-5.084865	62.490193	43.361636	1.611465	-8.960661	62.918786	43.567862
-0.825000	-3.995636	-4.876138	96.430707	-0.109042	-0.183641	-0.039850	87.033711	-0.402168	-3.065365	16.570542	1.783562	-21.593521	-34.010344	37.223198	10.334340	47.888415	34.740246	20.718150	4.927116	47.257898	33.502409	9.024179	-5.094598	62.511415	43.374657	1.633781	-8.943906	62.967525	43.586614
-0.815000	-3.995636	-4.876138	96.430707	-0.109025	-0.183647	-0.039851	87.042324	-0.393012	-3.074569	16.549725	1.753651	-21.605220	-34.021198	37.228306	10.344080	47.923922	34.760592	20.726236	4.921964	47.290052	33.526176	9.040760	-5.102505	62.527109	43.386955	1.667980	-8.940467	62.995866	43.594405
-0.805000	-3.995636	-4.876138	96.430707	-0.109011	-0.183645	-0.039849	87.048659	-0.386381	-3.076243	16.531281	1.730558	-21.615900	-34.030949	37.222172	10.350415	47.949301	34.777911	20.728982	4.916095	47.312391	33.545899	9.049573	-5.109352	62.538421	43.398617	1.710827	-8.944734	63.002447	43.591344
-0.795000	-3.995636	-4.876138	96.430707	-0.108998	-0.183635	-0.039846	87.057970	-0.381042	-3.072591	16.517040	1.709387	-21.622341	-34.037570	37.209874	10.353205	47.966199	34.792890	20.732199	4.910438	47.326906	33.561366	9.060956	-5.116563	62.548139	43.409191	1.755267	-8.948118	62.994724	43.581633
-0.785000	-3.995636	-4.876138	96.430707	-0.108980	-0.183616	-0.039842	87.074244	-0.376431	-3.067172	16.508181	1.685124	-21.623382	-34.040694	37.197005	10.352721	47.978962	34.806452	20.741749	4.905521	47.337316	33.572593	9.084450	-5.125390	62.559026	43.417572	1.792852	-8.942794	62.985137	43.571615
-0.775000	-3.995636	-4.876138	96.430707	-0.108954	-0.183590	-0.039836	87.098426	-0.373017	-3.063251	16.504463	1.653636	-21.620328	-34.041728	37.187501	10.349310	47.991929	34.819042	20.760470	4.901265	47.347406	33.579832	9.123440	-5.135963	62.572101	43.422194	1.817409	-8.925077	62.985250	43.566973
-0.765000	-3.995636	-4.876138	96.430707	-0.108917	-0.183555	-0.039823	87.128065	-0.371737	-3.062565	16.503940	1.612946	-21.616166	-34.043084	37.182635	10.343264	48.007243	34.830229	20.786922	4.897035	47.359851	33.583680	9.173184	-5.146768	62.585879	43.421588	1.828076	-8.896711	63.000802	43.570386
-0.755000	-3.995636	-4.876138	96.430707	-0.108865	-0.183510	-0.039801	87.158355	-0.372924	-3.065162	16.503536	1.564195	-21.614168	-34.047030	37.181245	10.334776	48.024391	34.838901	20.816592	4.892006	47.375671	33.585021	9.223638	-5.155116	62.596948	43.415060	1.830141	-8.863402	63.029938	43.580674
-0.745000	-3.995636	-4.876138	96.430707	-0.108794	-0.183453	-0.039766	87.183936	-0.375535	-3.070307	16.500379	1.511774	-21.616560	-34.054746	37.180803	10.323893	48.041560	34.843896	20.844626	4.885850	47.394066	33.584606	9.265639	-5.158612	62.601574	43.403068	1.833429	-8.831564	63.064934	43.593624
